<svg width="60" height="36" viewBox="0 0 60 36" fill="none" xmlns="http://www.w3.org/2000/svg">
<path d="M29.625 0C35.9602 7.82089e-07 41.4593 3.89686 44.2103 9.60869C45.4323 12.1458 46.0433 13.4144 46.7751 13.8742C47.5069 14.334 48.5841 14.334 50.7386 14.334H55.25C57.4591 14.334 59.25 16.1248 59.25 18.334V31.834C59.2498 34.043 57.459 35.834 55.25 35.834H9.875L9.36719 35.8193C4.14948 35.5316 0.000156406 30.8355 0 25.084C0 19.1469 4.42119 14.334 9.875 14.334C10.9516 14.334 11.4898 14.334 11.8835 14.2248C12.6233 14.0195 13.0143 13.7533 13.4766 13.1403C13.7225 12.8141 13.9795 12.1621 14.4936 10.858C17.0104 4.47265 22.8378 0 29.625 0Z" fill="#106843"/>
</svg>
