<svg width="79" height="86" viewBox="0 0 79 86" fill="none" xmlns="http://www.w3.org/2000/svg">
<path d="M39.5 14.333C45.8352 14.333 51.3343 18.2299 54.0853 23.9417C55.3073 26.4788 55.9183 27.7474 56.6501 28.2072C57.3819 28.667 58.4591 28.667 60.6136 28.667H65.125C67.3341 28.667 69.125 30.4579 69.125 32.667V46.167C69.1248 48.376 67.334 50.167 65.125 50.167H19.75L19.2422 50.1523C14.0245 49.8646 9.87516 45.1685 9.875 39.417C9.875 33.4799 14.2962 28.667 19.75 28.667C20.8266 28.667 21.3648 28.667 21.7585 28.5578C22.4983 28.3525 22.8893 28.0863 23.3516 27.4733C23.5975 27.1471 23.8545 26.4951 24.3686 25.191C26.8854 18.8057 32.7128 14.333 39.5 14.333Z" fill="#106843"/>
<path d="M39.5 68.0834V60.9167" stroke="#106843" stroke-width="2" stroke-linecap="round"/>
<path d="M55.9585 71.6667V60.9167" stroke="#106843" stroke-width="2" stroke-linecap="round"/>
<path d="M23.0415 75.2501V60.9167" stroke="#106843" stroke-width="2" stroke-linecap="round"/>
</svg>
