<svg width="558" height="210" viewBox="0 0 558 210" fill="none" xmlns="http://www.w3.org/2000/svg">
<g filter="url(#filter0_d_120_207)">
<path d="M115.131 47.648H127.899V113.024H115.131V47.648ZM124.347 72.608H139.707V83.168H124.347V72.608ZM70.587 124.736H131.067V135.008H70.587V124.736ZM70.587 106.496H83.451V126.944H70.587V106.496ZM60.507 53.984H73.179V66.656H90.651V53.984H103.227V99.104H60.507V53.984ZM73.179 76.448V89.024H90.651V76.448H73.179ZM217.46 47.456H230.324V136.352H217.46V47.456ZM227.06 81.536H242.708V92H227.06V81.536ZM194.132 56.672H206.708C206.708 65.568 205.428 73.984 202.868 81.92C200.372 89.856 196.212 97.152 190.388 103.808C184.628 110.4 176.82 116.16 166.964 121.088L159.764 111.392C167.572 107.36 174.004 102.816 179.06 97.76C184.18 92.704 187.956 86.976 190.388 80.576C192.884 74.112 194.132 66.912 194.132 58.976V56.672ZM164.66 56.672H200.756V66.944H164.66V56.672ZM284.844 97.664H297.708V133.856H284.844V97.664ZM325.932 47.552H338.796V136.448H325.932V47.552ZM264.588 103.04L263.148 92.672C268.588 92.672 274.54 92.64 281.004 92.576C287.468 92.512 294.06 92.288 300.78 91.904C307.5 91.52 314.028 90.912 320.364 90.08L321.036 99.296C314.572 100.512 308.012 101.376 301.356 101.888C294.764 102.4 288.332 102.72 282.06 102.848C275.852 102.976 270.028 103.04 264.588 103.04ZM308.172 107.36H328.428V116.96H308.172V107.36ZM291.852 51.296C296.204 51.296 300.076 52.064 303.468 53.6C306.924 55.136 309.612 57.28 311.532 60.032C313.452 62.72 314.412 65.856 314.412 69.44C314.412 73.088 313.452 76.288 311.532 79.04C309.612 81.792 306.924 83.936 303.468 85.472C300.076 86.944 296.204 87.68 291.852 87.68C287.5 87.68 283.596 86.944 280.14 85.472C276.748 83.936 274.06 81.792 272.076 79.04C270.156 76.288 269.196 73.088 269.196 69.44C269.196 65.856 270.156 62.72 272.076 60.032C274.06 57.28 276.748 55.136 280.14 53.6C283.596 52.064 287.5 51.296 291.852 51.296ZM291.852 60.896C289.804 60.896 287.948 61.248 286.284 61.952C284.684 62.592 283.436 63.552 282.54 64.832C281.644 66.112 281.196 67.648 281.196 69.44C281.196 71.296 281.644 72.864 282.54 74.144C283.436 75.424 284.684 76.384 286.284 77.024C287.948 77.664 289.804 77.984 291.852 77.984C293.964 77.984 295.788 77.664 297.324 77.024C298.924 76.384 300.172 75.424 301.068 74.144C302.028 72.864 302.508 71.296 302.508 69.44C302.508 67.648 302.028 66.112 301.068 64.832C300.172 63.552 298.924 62.592 297.324 61.952C295.788 61.248 293.964 60.896 291.852 60.896ZM383.813 92.768H396.581V117.632H383.813V92.768ZM416.069 92.768H428.837V117.632H416.069V92.768ZM366.149 115.808H446.693V126.176H366.149V115.808ZM406.277 51.968C412.677 51.968 418.373 52.96 423.365 54.944C428.421 56.928 432.357 59.712 435.173 63.296C438.053 66.816 439.493 71.008 439.493 75.872C439.493 80.672 438.053 84.864 435.173 88.448C432.357 91.968 428.421 94.72 423.365 96.704C418.373 98.688 412.677 99.68 406.277 99.68C399.941 99.68 394.245 98.688 389.189 96.704C384.197 94.72 380.261 91.968 377.381 88.448C374.501 84.864 373.061 80.672 373.061 75.872C373.061 71.008 374.501 66.816 377.381 63.296C380.261 59.712 384.197 56.928 389.189 54.944C394.245 52.96 399.941 51.968 406.277 51.968ZM406.277 61.856C402.181 61.856 398.565 62.432 395.429 63.584C392.357 64.672 389.957 66.24 388.229 68.288C386.501 70.336 385.637 72.864 385.637 75.872C385.637 78.752 386.501 81.248 388.229 83.36C389.957 85.408 392.357 87.008 395.429 88.16C398.565 89.248 402.181 89.792 406.277 89.792C410.437 89.792 414.053 89.248 417.125 88.16C420.261 87.008 422.661 85.408 424.325 83.36C426.053 81.248 426.917 78.752 426.917 75.872C426.917 72.864 426.053 70.336 424.325 68.288C422.661 66.24 420.261 64.672 417.125 63.584C414.053 62.432 410.437 61.856 406.277 61.856ZM482.973 106.208L481.245 57.92H496.605L494.877 106.208H482.973ZM488.925 128.96C486.365 128.96 484.285 128.256 482.685 126.848C481.149 125.376 480.381 123.392 480.381 120.896C480.381 118.336 481.149 116.352 482.685 114.944C484.285 113.472 486.365 112.736 488.925 112.736C491.549 112.736 493.629 113.472 495.165 114.944C496.701 116.352 497.469 118.336 497.469 120.896C497.469 123.392 496.701 125.376 495.165 126.848C493.629 128.256 491.549 128.96 488.925 128.96Z" fill="white"/>
</g>
<defs>
<filter id="filter0_d_120_207" x="0.506836" y="0.455994" width="556.962" height="208.992" filterUnits="userSpaceOnUse" color-interpolation-filters="sRGB">
<feFlood flood-opacity="0" result="BackgroundImageFix"/>
<feColorMatrix in="SourceAlpha" type="matrix" values="0 0 0 0 0 0 0 0 0 0 0 0 0 0 0 0 0 0 127 0" result="hardAlpha"/>
<feOffset dy="13"/>
<feGaussianBlur stdDeviation="30"/>
<feComposite in2="hardAlpha" operator="out"/>
<feColorMatrix type="matrix" values="0 0 0 0 0.969231 0 0 0 0 0.959911 0 0 0 0 0.959911 0 0 0 1 0"/>
<feBlend mode="normal" in2="BackgroundImageFix" result="effect1_dropShadow_120_207"/>
<feBlend mode="normal" in="SourceGraphic" in2="effect1_dropShadow_120_207" result="shape"/>
</filter>
</defs>
</svg>
